<svg height="482pt" viewBox="-29 0 482 482.308" width="482pt" xmlns="http://www.w3.org/2000/svg"><path d="m279.90625 478.308594v-87.722656c-26.648438 24.53125-62.21875 39.53125-101.296875 39.53125-9.859375 0-19.484375-.980469-28.8125-2.800782v50.988282h130.109375zm0 0" fill="#f9cfcf"/><path d="m279.90625 482.308594h-130.109375c-2.207031 0-4-1.792969-4-4v-50.992188c0-1.195312.535156-2.328125 1.460937-3.085937.921876-.761719 2.132813-1.070313 3.304688-.839844 9.273438 1.808594 18.710938 2.726563 28.046875 2.726563 36.625 0 71.636719-13.664063 98.585937-38.472657 1.167969-1.078125 2.859376-1.359375 4.316407-.71875 1.453125.636719 2.394531 2.074219 2.394531 3.664063v87.722656c0 2.207031-1.792969 3.996094-4 3.996094zm-126.109375-8h122.109375v-74.949219c-27.417969 22.476563-61.632812 34.757813-97.296875 34.757813-8.253906 0-16.578125-.679688-24.8125-2.019532zm0 0" fill="#3762cc"/><path d="m178.609375 30.503906c-82.636719 0-149.625 66.988282-149.625 149.621094v100.367188c0 1.34375.066406 2.667968.105469 4h-1.730469c-10.347656 0-18.742187 8.390624-18.742187 18.742187s8.394531 18.742187 18.742187 18.742187h7.5c17.988281 62.445313 75.515625 108.140626 143.75 108.140626 82.632813 0 149.621094-66.988282 149.621094-149.625v-100.367188c0-82.632812-66.988281-149.621094-149.621094-149.621094zm0 0" fill="#f9cfcf"/><path d="m178.609375 434.117188c-67.058594 0-126.960937-44.320313-146.730469-108.140626h-4.519531c-12.539063 0-22.742187-10.203124-22.742187-22.742187 0-11.738281 8.941406-21.429687 20.367187-22.617187 0-.042969 0-.082032 0-.125v-100.367188c0-84.707031 68.917969-153.621094 153.625-153.621094s153.621094 68.917969 153.621094 153.621094v100.367188c0 84.710937-68.914063 153.625-153.621094 153.625zm-151.25-145.625c-8.128906 0-14.742187 6.613281-14.742187 14.742187s6.613281 14.742187 14.742187 14.742187h7.496094c1.78125 0 3.351562 1.179688 3.84375 2.890626 17.851562 61.96875 75.386719 105.25 139.910156 105.25 80.292969 0 145.621094-65.328126 145.621094-145.625v-100.367188c0-80.296875-65.324219-145.621094-145.621094-145.621094s-145.625 65.324219-145.625 145.621094v100.367188c0 .867187.03125 1.726562.0625 2.585937l.042969 1.308594c.027344 1.078125-.382813 2.125-1.136719 2.894531-.75.773438-1.785156 1.207031-2.863281 1.207031h-1.730469zm0 0" fill="#3762cc"/><path d="m266.226562 4h-67.746093c-6.761719 0-12.246094 6.257812-12.246094 13.972656v6.40625c0-10.675781-8.378906-19.332031-18.71875-19.332031h-30.964844c-73.117187 0-132.394531 61.222656-132.394531 136.746094v29.246093c0 6.984376 5.480469 12.648438 12.242188 12.648438h157.589843c6.765625 0 12.246094 5.664062 12.246094 12.648438v29.582031c.105469-.039063.210937-.066407.316406-.105469v112.6875c-.105469-.039062-.210937-.0625-.316406-.105469v103.09375c0 9.835938 6.988281 17.816407 15.613281 17.816407h104.164063c63.214843 0 114.460937-58.480469 114.460937-130.617188v-148.667969c.003906-97.214843-69.054687-176.019531-154.246094-176.019531zm0 0" fill="#4671c6"/><path d="m306.015625 463.300781h-104.167969c-10.8125 0-19.613281-9.785156-19.613281-21.816406v-103.089844c0-.542969.113281-1.074219.316406-1.558593v-109.335938c-.207031-.492188-.316406-1.03125-.316406-1.585938v-29.578124c0-4.769532-3.695313-8.648438-8.242187-8.648438h-157.59375c-8.957032 0-16.246094-7.46875-16.246094-16.648438v-29.246093c0-77.609375 61.191406-140.75 136.398437-140.75h30.964844c6.738281 0 12.796875 3.027343 16.960937 7.828125 2.828126-5.304688 8.046876-8.871094 14.003907-8.871094h67.746093c87.257813 0 158.25 80.757812 158.25 180.019531v148.664063c0 74.226562-53.140624 134.617187-118.460937 134.617187zm-115.78125-123.246093v101.429687c0 7.617187 5.207031 13.816406 11.613281 13.816406h104.164063c60.910156 0 110.460937-56.800781 110.460937-126.617187v-148.664063c0-94.851562-67.402344-172.019531-150.25-172.019531h-67.746094c-4.546874 0-8.246093 4.472656-8.246093 9.972656v6.40625c0 2.210938-1.792969 4-4 4s-4-1.789062-4-4c0-8.453125-6.601563-15.332031-14.71875-15.332031h-30.960938c-70.796875 0-128.394531 59.550781-128.394531 132.746094v29.25c0 4.765625 3.699219 8.648437 8.246094 8.648437h157.589844c8.957031 0 16.242187 7.464844 16.242187 16.644532v27.894531c.210937.492187.316406 1.03125.316406 1.582031v112.6875c0 .539062-.109375 1.070312-.316406 1.554688zm0 0" fill="#3762cc"/><path d="m243.234375 280.300781c0 29.257813-23.714844 52.972657-52.96875 52.972657-29.257813 0-52.972656-23.714844-52.972656-52.972657 0-29.253906 23.714843-52.972656 52.972656-52.972656 29.253906 0 52.96875 23.71875 52.96875 52.972656zm0 0" fill="#f9cfcf"/><path d="m348.90625 118.503906.011719-.003906c-1.664063-26.269531-22.347657-40.226562-28.28125-43.710938-3.378907-20.507812-22.65625-36.25-45.996094-36.25-1.113281 0-2.207031.082032-3.304687.152344-6.839844-15.769531-23.617188-26.933594-43.273438-26.933594-10.351562 0-19.886719 3.132813-27.617188 8.367188-6.351562-2.976562-13.527343-4.683594-21.152343-4.683594-18.472657 0-34.386719 9.871094-41.917969 24.152344-.65625.578125-1.171875 1.0625-1.558594 1.433594-1.027344-.0625-2.050781-.144532-3.097656-.144532-25.585938 0-46.332031 18.890626-46.558594 42.269532-13.101562 7.550781-21.839844 20.875-21.839844 36.097656 0 22.242188 18.601563 40.488281 42.332032 42.457031l.019531.195313s15.511719 3.226562 31.148437-.894532c5.398438 5.417969 21.535157 18.628907 50.316407 18.628907 6.644531 0 13.609375-.730469 20.777343-2.1875l6.375-1.386719c9.144532 5.929688 25.40625 7.691406 32.722657 8.199219.367187.011719 1.550781.011719 1.550781.011719 1.164062.046874 2.355469.074218 3.566406.074218 4.65625 0 9.394532-.378906 13.984375-1.101562 7.558594-1.0625 14.453125-2.933594 20.515625-5.566406 2.230469.328124 4.199219 1.578124 5.300782 3.433593l15.199218 25.613281c.601563 1.015626 1.339844 1.9375 2.132813 2.808594 3.625 5.945313 10.265625 9.601563 17.449219 9.601563h1.546874c11.164063 0 20.214844-8.679688 20.214844-19.382813v-75.296875c-.003906-2.023437-.203125-4.011719-.566406-5.953125zm0 0" fill="#f9a7a7"/><path d="m329.257812 223.140625h-1.550781c-8.40625 0-16.285156-4.277344-20.660156-11.1875-.976563-1.101563-1.730469-2.117187-2.359375-3.179687l-15.203125-25.621094c-.328125-.554688-.871094-1-1.53125-1.269532-6.078125 2.496094-12.894531 4.289063-20.28125 5.328126-6.007813.941406-12.367187 1.296874-18.257813 1.058593-.007812.003907-1.148437.003907-1.523437-.007812-8.503906-.589844-23.550781-2.390625-33.3125-7.953125l-4.8125 1.046875c-7.453125 1.515625-14.710937 2.28125-21.632813 2.28125-27.726562 0-44.378906-11.710938-51.496093-18.226563-15.566407 3.492188-30.144531.539063-30.785157.40625-.265624-.054687-.523437-.132812-.765624-.242187-25.609376-2.6875-44.769532-22.40625-44.769532-46.328125 0-15.464844 8.152344-29.664063 21.921875-38.398438 1.523438-24.445312 23.667969-43.96875 50.476563-43.96875.519531 0 1.039062.019532 1.554687.042969 8.695313-15.746094 25.855469-25.484375 45.019531-25.484375 7.230469 0 14.214844 1.394531 20.796876 4.152344 8.332031-5.132813 17.957031-7.835938 27.972656-7.835938 19.777344 0 37.417968 10.429688 45.742187 26.792969.277344-.007813.558594-.011719.835938-.011719 24.480469 0 45.027343 15.773438 49.601562 37.765625 7.964844 5.046875 26.9375 19.726563 28.65625 45.789063.378907 2.128906.570313 4.273437.570313 6.363281v75.300781c.003906 12.894532-10.855469 23.386719-24.207032 23.386719zm-41.628906-49.460937c.195313 0 .390625.015624.582032.042968 3.46875.507813 6.441406 2.460938 8.15625 5.351563l15.199218 25.617187c.402344.671875.925782 1.359375 1.652344 2.160156.171875.1875.324219.390626.457031.609376 2.890625 4.738281 8.265625 7.679687 14.035157 7.679687h1.546874c8.941407 0 16.210938-6.902344 16.210938-15.382813v-75.300781c0-1.707031-.164062-3.464843-.492188-5.222656-.046874-.25-.070312-.5-.070312-.742187-1.648438-23.988282-20.53125-36.871094-26.292969-40.253907-1.023437-.601562-1.730469-1.625-1.921875-2.796875-3.09375-18.757812-21.167968-32.902344-42.050781-32.902344-.886719 0-1.761719.0625-2.632813.117188l-.417968.03125c-1.679688.101562-3.253906-.851562-3.925782-2.402344-6.460937-14.898437-22.007812-24.523437-39.601562-24.523437-9.175781 0-17.953125 2.652343-25.378906 7.675781-1.164063.789062-2.660156.90625-3.9375.308594-6.105469-2.855469-12.648438-4.304688-19.453125-4.304688-16.257813 0-31.324219 8.644532-38.378907 22.019532-.222656.425781-.523437.808593-.886718 1.128906-.601563.53125-1.078125.976562-1.429688 1.316406-.804687.777344-1.894531 1.191406-3.019531 1.113281l-.589844-.035156c-.75-.046875-1.503906-.101563-2.269531-.101563-23.257812 0-42.351562 17.1875-42.554688 38.3125-.015624 1.417969-.777343 2.71875-2.003906 3.425782-12.421875 7.15625-19.835937 19.351562-19.835937 32.632812 0 20.105469 16.621093 36.640625 38.660156 38.46875.554687.046875 1.078125.203125 1.542969.449219 3.601562.589844 16.015625 2.203125 28.28125-1.03125 1.375-.363281 2.84375.035156 3.851562 1.042969 5.230469 5.25 20.324219 17.453125 47.480469 17.453125 6.386719 0 13.109375-.707031 19.980469-2.105469l6.324218-1.378906c1.042969-.226563 2.128907-.027344 3.027344.554687 8.449219 5.480469 24.371094 7.113281 30.820313 7.5625.179687.003907 1.269531 0 1.277343 0 1.273438.046875 2.40625.074219 3.5625.074219 4.445313 0 8.941407-.351562 13.363282-1.046875 7.261718-1.023437 13.8125-2.800781 19.546875-5.289063.496093-.214843 1.042969-.328124 1.585937-.328124zm0 0" fill="#3762cc"/><path d="m75.695312 264.398438c-6.1875 0-11.203124-5.011719-11.203124-11.199219v-18.667969c0-6.1875 5.015624-11.203125 11.203124-11.203125 6.183594 0 11.199219 5.015625 11.199219 11.203125v18.667969c0 6.1875-5.015625 11.199219-11.199219 11.199219zm0 0" fill="#3762cc"/><path d="m248.6875 46.738281c-12.734375-3.859375-26.285156-.488281-36.371094 7.769531-10.085937-8.253906-23.636718-11.625-36.371094-7.769531-21.910156 6.640625-33.164062 31-25.070312 53.246094 2.9375 8.074219 8.011719 14.722656 14.285156 19.484375l.019532.011719 43.734374 33.730469c1.054688.8125 2.300782 1.003906 3.40625.714843 1.105469.289063 2.351563.097657 3.402344-.714843l43.738282-33.730469.015624-.011719c6.277344-4.761719 11.347657-11.410156 14.289063-19.484375 8.085937-22.246094-3.167969-46.605469-25.078125-53.246094zm0 0" fill="#e0ebfc"/><path d="m238.875 88.484375h-14.359375c-1.105469 0-2-.894531-2-2v-14.359375c0-1.105469-.894531-2-2-2h-16.398437c-1.105469 0-2 .894531-2 2v14.359375c0 1.105469-.898438 2-2 2h-14.359376c-1.105468 0-2 .894531-2 2v16.398437c0 1.105469.894532 2 2 2h14.359376c1.101562 0 2 .898438 2 2v14.359376c0 1.105468.894531 2 2 2h16.398437c1.105469 0 2-.894532 2-2v-14.359376c0-1.101562.894531-2 2-2h14.359375c1.105469 0 2-.894531 2-2v-16.398437c0-1.105469-.894531-2-2-2zm0 0" fill="#a4c9ff"/></svg>